{
  "accessors": [
    {
      "bufferView": 2,
      "componentType": 5126,
      "count": 3514,
      "max": [
        1.6489540338516235,
        0.93812501430511475,
        1
      ],
      "min": [
        -1.6489540338516235,
        -0.93782198429107666,
        -0.30164599418640137
      ],
      "type": "VEC3"
    },
    {
      "bufferView": 2,
      "byteOffset": 42168,
      "componentType": 5126,
      "count": 3514,
      "max": [
        0.99988758563995361,
        0.99999833106994629,
        1
      ],
      "min": [
        -0.99988758563995361,
        -0.99993801116943359,
        -1
      ],
      "type": "VEC3"
    },
    {
      "bufferView": 1,
      "componentType": 5126,
      "count": 3514,
      "max": [
        0.96853601932525635,
        0.99404501914978027
      ],
      "min": [
        0.0043049999512732029,
        0.0035230000503361225
      ],
      "type": "VEC2"
    },
    {
      "bufferView": 0,
      "componentType": 5125,
      "count": 17472,
      "max": [
        3513
      ],
      "min": [
        0
      ],
      "type": "SCALAR"
    },
    {
      "bufferView": 2,
      "byteOffset": 84336,
      "componentType": 5126,
      "count": 1000,
      "max": [
        1.6219840049743652,
        0.93532401323318481,
        0.96149402856826782
      ],
      "min": [
        -1.6219840049743652,
        -0.93524301052093506,
        -0.30164599418640137
      ],
      "type": "VEC3"
    },
    {
      "bufferView": 2,
      "byteOffset": 96336,
      "componentType": 5126,
      "count": 1000,
      "max": [
        0.27449002861976624,
        1,
        0.22790220379829407
      ],
      "min": [
        -0.27449002861976624,
        -1,
        -0.99999785423278809
      ],
      "type": "VEC3"
    },
    {
      "bufferView": 1,
      "byteOffset": 28112,
      "componentType": 5126,
      "count": 1000,
      "max": [
        0.96253597736358643,
        0.98641097545623779
      ],
      "min": [
        0.65383601188659668,
        0.015178999863564968
      ],
      "type": "VEC2"
    },
    {
      "bufferView": 0,
      "byteOffset": 69888,
      "componentType": 5125,
      "count": 4800,
      "max": [
        999
      ],
      "min": [
        0
      ],
      "type": "SCALAR"
    }
  ],
  "asset": {
    "extras": {
      "author": "Uriel Bromberg (https://sketchfab.com/Uriel.Bromberg.Shaw)",
      "license": "CC-BY-4.0 (http://creativecommons.org/licenses/by/4.0/)",
      "source": "https://sketchfab.com/3d-models/desk-props-deluxe-room-table-personal-09bf5678a77044e4a4847c9a8a2a2f6d",
      "title": "Desk: Props Deluxe (Room Table Personal)"
    },
    "generator": "Sketchfab-8.77.1",
    "version": "2.0"
  },
  "bufferViews": [
    {
      "buffer": 0,
      "byteLength": 89088,
      "byteOffset": 0,
      "name": "floatBufferViews",
      "target": 34963
    },
    {
      "buffer": 0,
      "byteLength": 36112,
      "byteOffset": 89088,
      "byteStride": 8,
      "name": "floatBufferViews",
      "target": 34962
    },
    {
      "buffer": 0,
      "byteLength": 108336,
      "byteOffset": 125200,
      "byteStride": 12,
      "name": "floatBufferViews",
      "target": 34962
    }
  ],
  "buffers": [
    {
      "byteLength": 233536,
      "uri": "scene.bin"
    }
  ],
  "materials": [
    {
      "alphaMode": "BLEND",
      "doubleSided": true,
      "name": "table01",
      "pbrMetallicRoughness": {
        "baseColorFactor": [
          0.0022003270000000002,
          0.099321718500000003,
          0.3002697829,
          0.35537347559999999
        ],
        "metallicFactor": 0,
        "roughnessFactor": 0.59999999999999998
      }
    },
    {
      "doubleSided": true,
      "name": "table02",
      "pbrMetallicRoughness": {
        "baseColorFactor": [
          0.2620854943,
          0.0559628852,
          0.75796976250000003,
          1
        ],
        "metallicFactor": 0,
        "roughnessFactor": 0.59999999999999998
      }
    }
  ],
  "meshes": [
    {
      "primitives": [
        {
          "attributes": {
            "NORMAL": 1,
            "POSITION": 0,
            "TEXCOORD_0": 2
          },
          "indices": 3,
          "material": 0,
          "mode": 4
        }
      ]
    },
    {
      "primitives": [
        {
          "attributes": {
            "NORMAL": 5,
            "POSITION": 4,
            "TEXCOORD_0": 6
          },
          "indices": 7,
          "material": 1,
          "mode": 4
        }
      ]
    }
  ],
  "nodes": [
    {
      "children": [
        1
      ],
      "name": "RootNode (gltf orientation matrix)",
      "rotation": [
        -0.70710678118654746,
        -0,
        -0,
        0.70710678118654757
      ]
    },
    {
      "children": [
        2
      ],
      "name": "RootNode (model correction matrix)"
    },
    {
      "children": [
        3,
        4
      ],
      "name": "c372edafe8a2449fa842c487ba41a329.obj.cleaner.materialmerger.gles"
    },
    {
      "mesh": 0,
      "name": ""
    },
    {
      "mesh": 1,
      "name": ""
    }
  ],
  "scene": 0,
  "scenes": [
    {
      "name": "OSG_Scene",
      "nodes": [
        0
      ]
    }
  ]
}

